<?xml version="1.0" encoding="UTF-8" standalone="no"?>
<!-- Created with Inkscape (http://www.inkscape.org/) -->

<svg
   xmlns:dc="http://purl.org/dc/elements/1.1/"
   xmlns:cc="http://creativecommons.org/ns#"
   xmlns:rdf="http://www.w3.org/1999/02/22-rdf-syntax-ns#"
   xmlns:svg="http://www.w3.org/2000/svg"
   xmlns="http://www.w3.org/2000/svg"
   xmlns:xlink="http://www.w3.org/1999/xlink"
   xmlns:sodipodi="http://sodipodi.sourceforge.net/DTD/sodipodi-0.dtd"
   xmlns:inkscape="http://www.inkscape.org/namespaces/inkscape"
   version="1.0"
   width="388"
   height="260"
   id="svg6217"
   inkscape:version="0.48.2 r9819"
   sodipodi:docname="AJAX.svg">
  <metadata
     id="metadata19">
    <rdf:RDF>
      <cc:Work
         rdf:about="">
        <dc:format>image/svg+xml</dc:format>
        <dc:type
           rdf:resource="http://purl.org/dc/dcmitype/StillImage" />
      </cc:Work>
    </rdf:RDF>
  </metadata>
  <sodipodi:namedview
     pagecolor="#ffffff"
     bordercolor="#666666"
     borderopacity="1"
     objecttolerance="10"
     gridtolerance="10"
     guidetolerance="10"
     inkscape:pageopacity="0"
     inkscape:pageshadow="2"
     inkscape:window-width="1280"
     inkscape:window-height="1004"
     id="namedview17"
     showgrid="false"
     inkscape:zoom="1.4378935"
     inkscape:cx="8.7198194"
     inkscape:cy="69.800544"
     inkscape:window-x="-8"
     inkscape:window-y="-8"
     inkscape:window-maximized="1"
     inkscape:current-layer="svg6217" />
  <defs
     id="defs6220" />
  <rect
     width="388"
     height="260"
     x="0"
     y="-7.6293945e-06"
     id="rect17037"
     style="fill:#01411c;fill-opacity:1;fill-rule:nonzero;stroke:none" />
  <path
     d="m 188.53724,166.31309 -5.23654,-12.21858 c 8.58822,-5.08904 10.90169,-12.26966 7.85481,-21.23707 -1.40517,5.42098 -6.11019,10.18198 -11.34584,14.83686 l -2.03642,-0.29093 0.87276,-9.30939 -2.9092,1.74551 0.58185,-6.98205 c 11.63163,-2.73667 10.91437,-11.11111 11.34583,-18.32787 -4.55773,7.14446 -9.11545,9.60823 -13.67318,13.09134 l -1.45459,-2.32735 3.49101,-6.98206 -3.49101,1.45461 0.58182,-5.81838 c 0,0 9.01848,-1.74552 13.09135,-5.52746 4.07286,-3.78194 3.49103,-9.018472 3.49103,-9.018472 -3.65785,3.843982 -10.49478,6.098452 -17.1642,8.436642 l -0.29093,-1.45459 6.69113,-7.272976 -4.6547,1.163686 2.61827,-7.5639 c 0,0 7.1275,1.381871 12.21858,-0.872744 5.09108,-2.254628 8.14573,-8.145729 8.14573,-8.145729 -5.01906,1.986538 -9.64377,0.979783 -15.41869,1.454592 l 6.98205,-4.945619 -2.9092,0 3.49103,-6.109293 c 0,0 4.14559,3.127377 9.01848,2.618269 4.87288,-0.509108 10.47308,-4.654698 10.47308,-4.654698 -6.84481,0.832476 -11.96708,-0.05756 -15.70961,-2.327351 1.61706,-2.94853 4.88038,-3.839241 9.60032,-2.909186 l -3.49104,-1.745512 3.78196,-2.036431 c 0,0 2.9819,2.981916 7.85479,3.200105 4.87289,0.21819 9.01849,-2.327349 9.01849,-2.327349 C 207.34209,64.110664 203.3026,59.846863 204.24685,45 c 0,0 -3.49103,0.218189 -4.6547,4.072862 -1.16367,3.854672 0,11.345827 0,11.345827 l -2.61827,1.745513 -0.58184,-2.327349 -1.45459,3.781942 -3.20011,4.072861 -3.2001,-5.527454 -0.29093,-7.563886 c 0,0 -4.43649,1.818242 -4.94561,6.691129 -0.50909,4.872888 2.90919,12.800422 2.90919,12.800422 l -2.32735,2.327351 -1.16367,-3.491026 -1.16368,6.400211 -2.32735,4.072861 c -4.77476,-3.661223 -9.27833,-7.438671 -8.72756,-13.382257 0,0 -3.49103,4.727426 -2.61828,10.18215 0.87276,5.454721 5.81838,9.309396 5.81838,9.309396 l -0.29092,4.654699 -2.61826,0 -0.87276,-2.327349 0.29093,6.691137 -0.58185,6.98205 c -5.27762,-2.34872 -9.73698,-5.720266 -11.92766,-11.927672 0,0 -2.40008,7.345692 0.29091,12.509502 2.691,5.16381 10.47308,8.14573 10.47308,8.14573 l -0.58183,3.49102 -3.20011,-1.74552 3.49102,9.89125 c -9.01117,0.17725 -11.54287,-3.69516 -14.54593,-7.27298 0,0 0.14545,7.34571 4.07285,11.05492 3.92741,3.70922 11.63676,3.78194 11.63676,3.78194 l 1.7455,5.23653 -4.07285,-1.16367 7.27296,9.01847 c -7.17974,-0.69053 -15.95799,-0.4676 -18.03696,-4.07285 0,0 1.52732,6.61839 6.40021,9.60031 4.87289,2.98192 13.09134,2.32735 13.09134,2.32735 l 10.47308,13.09135 2.32735,-1.16368"
     id="path12594"
     style="fill:#ffc224;fill-opacity:1;fill-rule:evenodd;stroke:none" />
  <path
     d="m 193.92724,191.04117 c 0,0 0.87276,13.67319 7.85481,11.63675 6.98204,-2.03643 19.36714,-17.43519 19.49155,-21.23705 0.1665,-5.08889 -15.56414,-19.78248 -11.05491,-23.56442 2.89125,-2.42493 24.98067,14.90833 25.30991,17.1642 0.63141,4.32603 -9.60029,13.6486 -9.6003,20.65522 0,2.54555 1.89097,6.69114 5.23653,6.98206 3.34556,0.29093 6.98205,-5.81838 6.98205,-5.81838 0,0 1.74551,6.25476 4.07286,6.40022 2.32735,0.14545 3.78195,-6.40022 3.78195,-6.40022 0,0 3.41829,6.69114 5.52745,6.40022 2.10916,-0.29093 2.90919,-7.5639 2.90919,-7.5639 0,0 3.78194,7.12752 5.81837,6.98206 2.03642,-0.14545 2.32735,-7.56389 2.32735,-7.56389 0,0 7.28517,12.84129 10.47308,3.78194 1.62634,-4.62173 -14.09383,-19.05978 -11.05492,-26.4736 2.15538,-5.25831 26.03722,-15.7096 27.34636,-12.21858 2.27553,6.06806 -9.3094,28.36457 -9.3094,30.83737 0,6.83659 5.09108,9.01849 9.01848,8.72758 3.92741,-0.29093 7.3457,-4.50924 6.69113,-9.89125"
     id="path6226"
     style="fill:none;stroke:#ffc224;stroke-width:4.11160946;stroke-linecap:butt;stroke-linejoin:miter;stroke-miterlimit:4;stroke-opacity:1;stroke-dasharray:none" />
  <path
     d="m 159.62424,170.9543 a 1.3797308,1.591997 0 1 1 -2.75946,0 1.3797308,1.591997 0 1 1 2.75946,0 z"
     transform="matrix(1.4900048,0,0,1.2913373,-34.274487,-41.083626)"
     id="path6228"
     style="fill:#ffc224;fill-opacity:1;fill-rule:nonzero;stroke:#ffc224;stroke-width:0.98804581000000002;stroke-miterlimit:4;stroke-opacity:1;stroke-dasharray:none" />
  <use
     transform="translate(40.728617,9.309398)"
     id="use6230"
     x="0"
     y="0"
     width="388"
     height="260"
     xlink:href="#path6228"
     style="fill:#ffc224;fill-opacity:1;stroke:#ffc224;stroke-opacity:1" />
  <use
     transform="translate(48.874332,9.8912346)"
     id="use6232"
     x="0"
     y="0"
     width="388"
     height="260"
     xlink:href="#path6228"
     style="fill:#ffc224;fill-opacity:1;stroke:#ffc224;stroke-opacity:1" />
  <use
     transform="translate(91.930298,32.582888)"
     id="use6234"
     x="0"
     y="0"
     width="388"
     height="260"
     xlink:href="#path6228"
     style="stroke:#ffc224;fill:#ffc224;fill-opacity:1;stroke-opacity:1" />
  <use
     transform="translate(-5.5274614,-5.2365417)"
     id="use6236"
     x="0"
     y="0"
     width="388"
     height="260"
     xlink:href="#use6234"
     style="stroke:#ffc224;fill:#ffc224;fill-opacity:1;stroke-opacity:1" />
  <use
     transform="translate(9.0184755,-1.1636677)"
     id="use6238"
     x="0"
     y="0"
     width="388"
     height="260"
     xlink:href="#use6236"
     style="stroke:#ffc224;fill:#ffc224;fill-opacity:1;stroke-opacity:1" />
  <path
     d="m 311.13555,166.31309 5.23653,-12.21858 c -8.58822,-5.08904 -10.90168,-12.26966 -7.8548,-21.23707 1.40517,5.42098 6.11019,10.18198 11.34583,14.83686 l 2.03643,-0.29093 -0.87276,-9.30939 2.9092,1.74551 -0.58185,-6.98205 c -11.63163,-2.73667 -10.91438,-11.11111 -11.34584,-18.32787 4.55774,7.14446 9.11546,9.60823 13.67319,13.09134 l 1.45459,-2.32735 -3.49102,-6.98206 3.49102,1.45461 -0.58182,-5.81838 c 0,0 -9.01849,-1.74552 -13.09135,-5.52746 -4.07286,-3.78194 -3.49103,-9.018472 -3.49103,-9.018472 3.65785,3.843982 10.49477,6.098452 17.1642,8.436642 l 0.29092,-1.45459 -6.69112,-7.272976 4.6547,1.163686 -2.61827,-7.5639 c 0,0 -7.12751,1.381871 -12.21858,-0.872744 -5.09108,-2.254628 -8.14573,-8.145729 -8.14573,-8.145729 5.01905,1.986538 9.64376,0.979783 15.41868,1.454592 l -6.98204,-4.945619 2.90919,0 -3.49103,-6.109293 c 0,0 -4.14558,3.127377 -9.01847,2.618269 -4.87289,-0.509108 -10.47308,-4.654698 -10.47308,-4.654698 6.8448,0.832476 11.96707,-0.05756 15.70961,-2.327351 -1.61707,-2.94853 -4.88038,-3.839241 -9.60032,-2.909186 l 3.49103,-1.745512 -3.78195,-2.036431 c 0,0 -2.98191,2.981916 -7.85479,3.200105 -4.87289,0.21819 -9.01849,-2.327349 -9.01849,-2.327349 12.61436,0.20095 16.65386,-4.062851 15.70961,-18.909714 0,0 3.49103,0.218189 4.6547,4.072862 1.16367,3.854672 0,11.345827 0,11.345827 l 2.61827,1.745513 0.58184,-2.327349 1.45459,3.781942 3.2001,4.072861 3.20011,-5.527454 0.29092,-7.563886 c 0,0 4.4365,1.818242 4.94561,6.691129 0.5091,4.872888 -2.90918,12.800422 -2.90918,12.800422 l 2.32735,2.327351 1.16367,-3.491026 1.16368,6.400211 2.32735,4.072861 c 4.77475,-3.661223 9.27832,-7.438671 8.72756,-13.382257 0,0 3.49103,4.727426 2.61827,10.18215 -0.87275,5.454721 -5.81838,9.309396 -5.81838,9.309396 l 0.29093,4.654699 2.61826,0 0.87275,-2.327349 -0.29092,6.691137 0.58185,6.98205 c 5.27762,-2.34872 9.73697,-5.720266 11.92765,-11.927672 0,0 2.40009,7.345692 -0.29091,12.509502 -2.69099,5.16381 -10.47307,8.14573 -10.47307,8.14573 l 0.58183,3.49102 3.20011,-1.74552 -3.49102,9.89125 c 9.01117,0.17725 11.54286,-3.69516 14.54593,-7.27298 0,0 -0.14546,7.34571 -4.07285,11.05492 -3.92741,3.70922 -11.63676,3.78194 -11.63676,3.78194 l -1.7455,5.23653 4.07285,-1.16367 -7.27296,9.01847 c 7.17973,-0.69053 15.95799,-0.4676 18.03696,-4.07285 0,0 -1.52733,6.61839 -6.40022,9.60031 -4.87288,2.98192 -13.09133,2.32735 -13.09133,2.32735 l -10.47308,13.09135 -2.32735,-1.16368"
     id="path7138"
     style="fill:#ffc224;fill-opacity:1;fill-rule:evenodd;stroke:none" />
  <path
     d="M 297.23178,134.43906 C 263.01646,165.06353 193.81596,123.92268 239.99515,67.578571 162.18353,104.8151 243.2728,208.74556 297.23178,134.43906 z"
     id="path12592"
     style="fill:#ffc224;fill-opacity:1;fill-rule:evenodd;stroke:none;stroke-width:1.37053644999999990px;stroke-linecap:butt;stroke-linejoin:miter;stroke-opacity:1" />
  <path
     d="m 97.937919,95.907788 -8.785686,-6.283449 -8.590867,6.54729 3.260989,-10.297377 -8.881567,-6.147175 10.801088,-0.08068 3.101757,-10.346454 3.41445,10.247514 10.798557,-0.247285 -8.69084,6.413992 3.572119,10.193624 z"
     transform="matrix(-0.85780783,0.40000752,0.40000752,0.85780783,320.58981,-16.389404)"
     id="path12597"
     style="fill:#ffc224;fill-opacity:1;fill-rule:nonzero;stroke:none" />
  <rect
     width="97"
     height="260"
     x="0"
     y="-6.0063066e-14"
     id="rect2825"
     style="fill:#ffffff;fill-opacity:1;stroke:none" />
</svg>
